<?xml version="1.0" encoding="UTF-8" standalone="no"?>
<svg
   xmlns:dc="http://purl.org/dc/elements/1.1/"
   xmlns:cc="http://creativecommons.org/ns#"
   xmlns:rdf="http://www.w3.org/1999/02/22-rdf-syntax-ns#"
   xmlns:svg="http://www.w3.org/2000/svg"
   xmlns="http://www.w3.org/2000/svg"
   xmlns:sodipodi="http://sodipodi.sourceforge.net/DTD/sodipodi-0.dtd"
   xmlns:inkscape="http://www.inkscape.org/namespaces/inkscape"
   width="1066.33mm"
   height="750.776mm"
   viewBox="0 0 3778 2660"
   version="1.1"
   id="svg3"
   sodipodi:docname="logo.svg"
   inkscape:version="1.0.2-2 (e86c870879, 2021-01-15)">
  <metadata
     id="metadata9">
    <rdf:RDF>
      <cc:Work
         rdf:about="">
        <dc:format>image/svg+xml</dc:format>
        <dc:type
           rdf:resource="http://purl.org/dc/dcmitype/StillImage" />
        <dc:title />
      </cc:Work>
    </rdf:RDF>
  </metadata>
  <defs
     id="defs7" />
  <sodipodi:namedview
     pagecolor="#ffffff"
     bordercolor="#666666"
     borderopacity="1"
     objecttolerance="10"
     gridtolerance="10"
     guidetolerance="10"
     inkscape:pageopacity="0"
     inkscape:pageshadow="2"
     inkscape:window-width="1920"
     inkscape:window-height="1057"
     id="namedview5"
     showgrid="false"
     inkscape:zoom="0.60244799"
     inkscape:cx="608.87561"
     inkscape:cy="1047.8025"
     inkscape:window-x="-8"
     inkscape:window-y="-8"
     inkscape:window-maximized="1"
     inkscape:current-layer="svg3"
     inkscape:document-rotation="0" />
  <path
     style="fill:#516499;fill-opacity:1;stroke:none;stroke-width:0;stroke-miterlimit:4;stroke-dasharray:none"
     d="m 2153.6238,1899.1992 c -16.2603,-5.8942 -31.4765,-11.4441 -33.8136,-12.333 -3.0048,-1.1428 -0.4982,-5.6855 8.5581,-15.5105 26.4535,-28.6987 8.9454,-31.564 -28.2461,-4.6227 l -12.0857,8.7548 -24.001,-7.9311 c -13.2005,-4.3622 -25.0012,-8.8195 -26.2238,-9.9053 -1.2226,-1.0857 16.8977,-15.258 40.2674,-31.4939 47.0236,-32.6694 70.2462,-52.8212 63.5999,-55.1898 -7.7659,-2.7675 -42.4124,5.9724 -65.0598,16.412 -12.3994,5.7157 -37.6805,20.2618 -56.1804,32.3248 l -33.6363,21.9325 -30.5031,-8.6676 -30.5032,-8.6676 16.6628,-18.2586 c 50.3236,-55.1432 108.4423,-98.2736 181.7963,-134.9127 61.9104,-30.9231 100.5715,-45.9959 184.9701,-72.1145 122.9497,-38.0488 203.2521,-55.6057 334.5436,-73.1431 88.4698,-11.8173 150.5981,-31.186 334.8432,-104.3883 55.7924,-22.1669 104.913,-40.3034 109.1567,-40.3034 8.7216,0 17.9572,8.8605 25.9501,24.8963 2.9859,5.9906 19.6857,25.5965 37.1104,43.5685 48.77,50.3016 61.1106,81.1673 44.0745,110.2372 -14.522,24.7799 -43.0787,34.2713 -113.2995,37.6576 -35.1814,1.6964 -47.2753,3.3 -47.2753,6.268 0,2.5309 8.2452,5.3618 22.5622,7.7463 69.896,11.6417 170.3839,59.7831 170.3839,81.6269 0,7.3463 -17.9922,20.9867 -27.6823,20.9867 -12.1953,0 -36.6811,-7.7225 -80.7426,-25.4655 -21.1223,-8.5056 -39.1178,-14.7512 -39.9901,-13.8789 -2.9548,2.9548 2.421,8.1218 17.0924,16.4293 56.5727,32.0334 83.0547,52.6651 79.4975,61.935 -2.9741,7.7504 -18.328,13.8847 -34.7527,13.8847 -8.4205,0 -29.1461,-4.0258 -46.057,-8.9461 -81.3564,-23.6714 -106.0074,-26.8476 -208.1329,-26.8176 -124.612,0.037 -186.9332,9.7779 -406.1202,63.4788 -151.1869,37.041 -178.7935,47.2713 -257.3505,95.3672 -18.0307,11.0392 -34.3728,20.0013 -36.3159,19.9158 -1.943,-0.085 -16.8367,-4.9779 -33.0971,-10.8722 z"
     id="path848" />
  <path
     style="fill:#516499;fill-opacity:1;stroke:none;stroke-width:0;stroke-miterlimit:4;stroke-dasharray:none"
     d="m 1412.96,1828.0326 c 0,-1.0758 16.5501,-26.7851 36.7779,-57.1319 20.2278,-30.3468 48.2456,-73.5441 62.2618,-95.994 l 25.4841,-40.818 39.6572,-18.2939 c 68.878,-31.7737 101.4985,-49.2014 107.1164,-57.2277 2.9951,-4.2791 9.0457,-21.4744 13.446,-38.2119 19.5512,-74.3694 66.4874,-153.8398 132.5717,-224.4652 16.9497,-18.1145 30.8176,-34.3428 30.8176,-36.0627 0,-4.9037 -14.267,-3.8037 -78.5814,6.0585 -161.4162,24.7521 -229.1923,19.5105 -306.4606,-23.7004 -61.0067,-34.1169 -100.5521,-77.0894 -100.3668,-109.0648 0.1842,-31.7851 30.5694,-59.2889 57.9173,-52.4249 8.0946,2.0316 8.168,2.3024 6.099,22.4969 -1.1518,11.2424 -2.388,21.8775 -2.7471,23.6337 -1.8647,9.1197 110.2965,34.2676 177.9741,39.9038 125.5807,10.4585 273.959,-6.1962 418.8833,-47.0174 23.9627,-6.7497 89.082,-22.6834 144.7096,-35.4083 174.9474,-40.0198 200.4007,-44.7883 284.7509,-53.3463 102.7339,-10.4231 166.4197,-28.7077 372.795,-107.03014 172.3965,-65.42677 218.4673,-80.76666 294.5388,-98.07059 l 41.815,-9.51165 27.8326,-32.09191 c 15.3079,-17.65055 31.0416,-34.19454 34.9637,-36.76442 10.967,-7.18583 26.5327,-0.88539 63.8534,25.84555 41.4396,29.68108 38.1732,28.0863 104.0572,50.8046 99.8139,34.4181 129.1506,53.35783 153.9137,99.3665 7.5086,13.95068 18.7865,30.00361 25.062,35.67312 6.2755,5.66951 32.8585,21.17226 59.0735,34.45088 58.2765,29.51886 62.2402,33.04496 62.2402,55.36876 0,24.822 -12.0865,42.3022 -37.8429,54.7303 -10.8513,5.2359 -26.3816,10.4461 -34.5118,11.578 l -14.7821,2.0581 v 16.3025 c 0,21.104 -8.9642,34.9476 -29.0927,44.929 l -15.0795,7.4777 -40.9326,-4.3656 c -59.0147,-6.2943 -193.1926,-5.4972 -233.8786,1.3895 -156.7261,26.5277 -250.085,87.5409 -277.109,181.0997 -2.9451,10.1966 -6.9198,19.5886 -8.8325,20.8711 -7.193,4.8235 -147.6966,59.322 -191.3843,74.2341 -25.0226,8.5411 -61.6005,19.8708 -81.2842,25.1771 l -35.7883,9.6478 -77.8008,-3.5759 c -210.5861,-9.6787 -364.2514,-11.3806 -446.6882,-4.947 -16.1603,1.2612 -30.0082,0.3096 -44.5396,-3.0604 -41.4869,-9.6215 -39.004,-10.5528 -97.2721,36.4856 -46.8703,37.8374 -103.5825,74.9576 -231.2935,151.3898 -118.7565,71.0733 -135.3925,81.7094 -172.9451,110.5716 l -24.8962,19.1348 -48.1292,5.4197 c -40.9815,4.6148 -115.5056,16.7517 -139.3708,22.6978 -3.8511,0.9595 -7.0021,0.8644 -7.0021,-0.2113 z"
     id="path850" />
  <path
     style="fill:#516499;fill-opacity:1;stroke:none;stroke-width:0;stroke-miterlimit:4;stroke-dasharray:none"
     d="m 1279.1426,1771.2442 c -34.6564,-12.9661 -87.8527,-39.9855 -107.5625,-54.6328 -32.5753,-24.2085 -45.0656,-50.7818 -40.7996,-86.8018 0.9965,-8.4136 11.4624,-42.9395 23.2576,-76.7243 l 21.4459,-61.4269 5.3463,-105.8091 c 8.0942,-160.1892 13.0656,-205.4562 28.3607,-258.2364 21.3254,-73.5897 64.7895,-132.28972 147.7524,-199.54306 65.3167,-52.94844 93.914,-64.48148 226.5651,-91.37159 298.0532,-60.41934 488.9004,-131.90283 683.7045,-256.08738 89.6359,-57.1415 149.0138,-102.46132 286.307,-218.52256 121.7468,-102.9189 152.6697,-128.24108 196.0581,-160.54824 121.5634,-90.51656 226.3667,-141.988872 365.6538,-179.584672 39.1169,-10.55826 45.1425,-11.34856 87.147,-11.43003 48.5744,-0.0942 50.4728,0.25882 150.9336,28.06803 33.6001,9.30106 47.3356,11.48014 81.0476,12.85782 51.3952,2.10032 78.1469,-3.9912 126.8608,-28.8869 26.0972,-13.3372299 33.4342,-15.9947998 32.1516,-11.64582 -11.9311,40.45857 -12.7519,47.19727 -12.8161,105.219872 -0.059,53.74472 0.5956,61.1121 7.195,80.91281 13.0598,39.18445 27.8528,69.13964 75.7686,153.42956 72.9947,128.40693 85.1687,153.03129 95.8496,193.87579 16.1847,61.89124 17.8245,112.75573 4.8906,151.69614 -7.0652,21.27108 -19.7429,33.44617 -41.3755,39.7349 -38.3369,11.14487 -72.2234,-1.13869 -108.8541,-39.45874 -66.7554,-69.83383 -215.619,-214.20521 -252.6491,-245.02486 -12.9564,-10.78337 -33.2142,-24.43742 -45.0174,-30.34231 -47.5455,-23.78602 -95.9714,-9.81597 -147.995,42.69404 -47.1198,47.56036 -77.3068,111.38255 -80.3092,169.79186 -1.9621,38.17251 0.9811,47.29898 19.3234,59.91883 24.2943,16.71485 46.8074,22.02619 130.7839,30.8549 22.9697,2.41485 23.5717,2.64751 7.7801,3.00647 l -17.1161,0.38907 -34.2324,35.38301 -34.2324,35.383 -40.4564,6.76111 c -84.8899,14.18685 -150.8084,35.08823 -322.0954,102.12989 -226.6722,88.71954 -239.2003,92.32042 -393.3622,113.05906 -65.3441,8.7904 -147.8963,25.5934 -266.9473,54.3354 -278.2425,67.174 -324.0885,74.5352 -464.6904,74.6123 -102.7298,0.056 -122.9052,-2.3832 -195.28,-23.6122 l -21.0063,-6.1615 v -23.032 c 0,-20.2728 -0.8285,-23.6124 -6.9165,-27.8765 -7.7959,-5.4605 -32.6855,-6.4402 -48.4865,-1.9085 -9.3184,2.6725 -10.504,2.2353 -13.2056,-4.8707 -1.6324,-4.2936 -2.9681,-11.2606 -2.9681,-15.482 0,-10.9863 -8.8196,-13.2264 -16.045,-4.0756 -8.6112,10.9055 -56.2526,108.6024 -68.9071,141.3055 -22.641,58.5115 -30.9439,100.2311 -37.7803,189.834 -4.1425,54.2944 -5.5506,62.3091 -17.2214,98.0291 -17.5004,53.5616 -37.6956,128.9936 -39.6868,148.2353 -3.9066,37.7533 12.5144,67.9539 67.0361,123.2895 19.8157,20.1116 34.0025,36.4069 31.5261,36.2119 -2.4764,-0.1951 -13.6052,-3.7602 -24.7307,-7.9227 z"
     id="path852" />
  <path
     style="fill:#516499;fill-opacity:1;stroke:none;stroke-width:3.11203"
     d="m 1428.6448,1769.4073 c -2.9569,-11.0336 -2.2753,-46.3087 1.4065,-72.7793 4.4651,-32.1028 13.5554,-60.2239 47.0613,-145.5848 30.241,-77.0435 42.9316,-120.5078 42.9316,-147.0381 0,-18.7073 -9.2878,-45.0474 -38.6524,-109.6164 -9.6439,-21.2058 -17.1459,-38.9278 -16.6712,-39.382 0.4747,-0.4544 13.4668,4.5552 28.8714,11.1322 81.9008,34.9681 144.1192,38.6955 280.9969,16.8345 26.1769,-4.1807 49.6998,-7.6013 52.2731,-7.6013 2.6541,0 -7.8788,14.4767 -24.3406,33.4543 -15.9607,18.4 -35.5031,42.5571 -43.4275,53.6826 -27.8689,39.1267 -58.591,110.97 -74.1245,173.3393 -4.2034,16.8772 -9.8298,20.7124 -69.9738,47.6977 -26.8958,12.0674 -58.2123,26.6436 -69.5924,32.3913 l -20.6909,10.4503 -21.4057,38.1242 c -19.0155,33.8672 -69.0509,111.8976 -71.7521,111.8976 -0.5684,0 -1.8777,-3.1509 -2.9097,-7.0021 z"
     id="path856" />
  <path
     style="fill:#516499;fill-opacity:1;stroke:none;stroke-width:3.11203"
     d="m 3317.4964,762.80155 c -14.5336,-9.76568 -33.4267,-21.77504 -41.9847,-26.68748 l -15.5603,-8.9317 18.4263,1.88093 c 32.597,3.32748 45.9251,12.0582 65.5447,42.93595 2.9909,4.70695 4.214,8.55809 2.7182,8.55809 -1.4958,0 -14.6107,-7.99011 -29.1442,-17.75579 z"
     id="path862" />
  <path
     id="path864"
     style="fill:#77b1b1;fill-opacity:1;stroke:none;stroke-width:0;stroke-miterlimit:4;stroke-dasharray:none"
     d="m 514.99631,1469.2463 c -5.1712,0.044 -9.8098,0.2406 -13.75,0.606 -140.9739,13.0731 -248.32904,61.4235 -345.11017,155.4303 -84.49018,82.0689 -134.08935,177.536 -148.4417798,285.7114 -22.3362202,168.35 72.0649418,335.153 254.8488498,450.3071 37.5759,23.673 106.7868,60.1842 111.2599,58.6931 1.873,-0.6243 -4.0713,-8.0337 -13.2099,-16.4653 -29.4768,-27.1961 -77.1778,-80.1158 -101.6734,-112.7978 -99.54394,-132.8105 -141.95103,-278.1997 -116.88524,-400.732 22.07118,-107.8933 88.09292,-189.3899 197.99394,-244.4027 58.5859,-29.3263 59.0026,-27.9246 9.8594,33.2381 -29.4829,36.6939 -49.9403,69.756 -73.8547,119.3598 -30.8292,63.9462 -40.80194,106.1907 -40.40644,171.1613 1.02834,168.9558 107.94834,326.3193 279.95914,412.0414 69.0613,34.417 155.608,61.359 218.9514,68.1588 26.9663,2.8949 84.0161,1.7754 129.4279,-2.5395 178.81089,-16.9898 363.44469,-68.1688 432.71199,-119.942 15.6148,-11.6711 31.7147,-32.5368 27.9835,-36.2681 -4.5102,-4.5102 -46.7176,-10.0274 -77.5055,-10.1322 -37.3812,-0.1275 -84.4924,4.3566 -210.7508,20.0611 -96.68959,12.0266 -138.67679,16.0272 -199.17029,18.9772 -222.2968,10.8407 -377.4814,-92.1351 -412.446,-273.686 -6.2704,-32.5577 -6.1887,-94.7545 0.1721,-131.1178 8.7204,-49.8535 34.371,-114.0447 61.551,-154.0333 35.0112,-51.5103 93.1514,-107.7006 126.0151,-121.7876 31.4139,-13.4656 101.3836,-19.007 151.5745,-12.0052 11.9813,1.6715 45.8764,8.1212 75.3212,14.3322 29.4448,6.211 55.7624,10.437 58.4843,9.3926 7.1728,-2.7526 2.7501,-9.4913 -26.5498,-40.4446 -53.7324,-56.7646 -149.1777,-107.9027 -239.4922,-128.3183 -31.9207,-7.2158 -79.701,-12.4696 -111.5254,-12.7925 -1.836,-0.019 -3.6188,-0.02 -5.3426,-0.01 z m 3165.90349,325.5206 c -28.989,0.1863 -67.3642,10.3624 -106.6332,29.774 -36.4824,18.0341 -44.7497,24.5892 -125.0557,99.154 -53.6683,49.8314 -95.7415,82.2633 -138.0496,106.4154 l -32.8335,18.7447 16.3279,14.8578 c 9.3601,8.5166 19.8886,22.1295 24.6677,31.8978 30.646,62.6381 -44.6101,99.2823 -242.9819,118.3144 -70.8333,6.7959 -328.4313,9.5137 -442.275,4.6669 -164.2663,-6.9937 -355.6509,-22.7771 -458.0519,-37.7769 -22.7728,-3.3358 -42.028,-6.0657 -42.7899,-6.0657 -0.7619,0 -1.3859,-2.2678 -1.3859,-5.0405 0,-4.4794 4.0752,-4.8095 36.5666,-2.9533 90.1452,5.15 189.1191,11.6456 263.7462,17.3094 196.4215,14.9075 394.2637,23.3804 477.6955,20.4565 130.2821,-4.5652 276.2172,-23.6376 333.6992,-43.61 41.3151,-14.3552 61.5936,-32.2108 57.0672,-50.2453 -3.9946,-15.9161 -18.8601,-35.6606 -31.3267,-41.609 -27.798,-13.2638 -110.541,-22.2835 -242.7383,-26.4601 -295.8821,-9.348 -436.7881,-21.0678 -567.9459,-47.239 -50.4054,-10.0578 -75.7038,-16.5032 -146.0268,-37.2056 -94.6572,-27.8663 -124.8792,-37.627 -221.1925,-71.4343 -88.4062,-31.0318 -163.9668,-54.2858 -210.3187,-64.7258 -64.3857,-14.502 -147.2294,-21.33 -214.4749,-17.6791 -65.034,3.5308 -195.7257,20.5236 -229.0762,29.785 -9.2251,2.5618 -24.8075,5.9261 -34.6278,7.4755 -38.5152,6.0769 -119.7458,33.9715 -185.6309,63.7464 -130.5559,59.0009 -277.78979,169.5948 -393.38439,295.4883 l -25.3561,27.6154 26.3612,-2.1366 c 14.4993,-1.1749 77.4779,-7.9442 139.9519,-15.0427 106.72249,-12.1263 118.85719,-12.908 200.72659,-12.8986 132.5157,0.012 213.6421,9.7923 679.9784,81.971 307.7161,47.6277 484.7077,68.6906 651.9712,77.5879 v 0 c 27.3859,1.4568 90.4047,2.8147 140.0416,3.0192 369.8357,1.5242 648.1054,-79.1332 862.0739,-249.8752 40.4982,-32.3168 111.161,-103.0214 146.8305,-146.9185 29.0282,-35.7239 70.8451,-94.4047 79.8856,-112.1003 6.5105,-12.7459 6.5174,-31.7384 0.013,-41.025 -7.4119,-10.5819 -22.634,-15.9011 -42.6745,-16.2254 -0.9153,-0.015 -1.8405,-0.019 -2.7757,-0.013 z m -195.1864,4.3905 c -1.0151,0.033 -2.0694,0.2163 -3.1527,0.5602 -3.9636,1.2579 -31.5288,25.8686 -61.2563,54.6889 -64.0441,62.0893 -101.3593,90.8507 -168.4261,129.8197 -27.3324,15.8815 -52.0111,31.4333 -54.8408,34.56 -6.1404,6.7852 -4.0653,13.9518 5.3005,18.2998 19.4287,9.0199 60.7777,-13.6275 156.5893,-85.7647 105.1453,-79.1648 138.0953,-111.2491 138.0953,-134.4701 0,-10.8101 -5.2029,-17.9265 -12.3092,-17.6938 z m -151.0305,57.2575 c -3.8837,0.3437 -10.3354,5.1875 -24.73,17.7414 -46.5206,40.5722 -82.8974,63.9427 -179.9295,115.601 -28.6697,15.2633 -52.1257,29.3068 -52.1257,31.2077 0,1.9009 3.1503,4.9756 7.0014,6.8329 11.113,5.3596 16.5977,4.481 44.7434,-7.1699 106.0227,-43.8881 212.7777,-119.6103 212.7777,-150.9244 0,-4.6791 -2.0302,-10.1913 -4.5113,-12.2505 -0.9233,-0.7662 -1.9316,-1.1526 -3.226,-1.0382 z m -301.5506,140.948 c -13.1216,0 -68.5,7.9429 -89.8311,12.884 -27.986,6.4827 -33.6687,10.4693 -18.6715,13.1 4.707,0.8257 21.9638,1.0647 38.3482,0.531 22.1571,-0.7217 33.8617,-2.7206 45.6809,-7.8051 13.8712,-5.9672 30.5384,-18.7099 24.4735,-18.7099 z m -1458.3474,434.2209 c -148.7282,0.01 -211.3596,8.7926 -376.5549,52.8213 -153.1826,40.827 -217.91414,54.9409 -294.08759,64.1217 -40.7605,4.9126 -156.9647,4.9946 -194.5017,0.1373 -69.7089,-9.0205 -147.843,-30.9142 -218.4149,-61.1995 -41.6372,-17.8683 -61.6683,-23.8687 -61.6683,-18.4738 0,11.0756 21.8977,33.4342 66.8131,68.221 85.705,66.378 188.5055,107.0412 294.3752,116.4395 44.8394,3.9806 71.8729,3.7432 121.1779,-1.0637 79.80939,-7.7808 110.85249,-13.7234 269.18919,-51.5342 122.9369,-29.3573 156.1772,-36.2775 222.6315,-46.3473 218.8351,-33.1604 425.0377,-19.3345 584.012,39.1592 38.2092,14.0588 47.4601,15.4731 50.064,7.6531 1.9473,-5.8478 -33.8352,-39.4133 -68.2979,-64.0667 -68.1573,-48.7573 -150.3141,-80.8098 -253.3209,-98.8282 -36.2946,-6.3487 -50.2694,-7.0397 -141.4167,-7.0397 z" />
</svg>
