<?xml version="1.0" encoding="UTF-8" standalone="no"?>
<svg
   xmlns:dc="http://purl.org/dc/elements/1.1/"
   xmlns:cc="http://creativecommons.org/ns#"
   xmlns:rdf="http://www.w3.org/1999/02/22-rdf-syntax-ns#"
   xmlns:svg="http://www.w3.org/2000/svg"
   xmlns="http://www.w3.org/2000/svg"
   xmlns:sodipodi="http://sodipodi.sourceforge.net/DTD/sodipodi-0.dtd"
   xmlns:inkscape="http://www.inkscape.org/namespaces/inkscape"
   width="455.264mm"
   height="65.4812mm"
   viewBox="0 0 1613 232"
   version="1.1"
   id="svg3"
   sodipodi:docname="vague.svg"
   inkscape:version="1.0.2-2 (e86c870879, 2021-01-15)">
  <metadata
     id="metadata9">
    <rdf:RDF>
      <cc:Work
         rdf:about="">
        <dc:format>image/svg+xml</dc:format>
        <dc:type
           rdf:resource="http://purl.org/dc/dcmitype/StillImage" />
      </cc:Work>
    </rdf:RDF>
  </metadata>
  <defs
     id="defs7" />
  <sodipodi:namedview
     pagecolor="#ffffff"
     bordercolor="#666666"
     borderopacity="1"
     objecttolerance="10"
     gridtolerance="10"
     guidetolerance="10"
     inkscape:pageopacity="0"
     inkscape:pageshadow="2"
     inkscape:window-width="1920"
     inkscape:window-height="1057"
     id="namedview5"
     showgrid="false"
     inkscape:zoom="0.70553385"
     inkscape:cx="860.34143"
     inkscape:cy="123.744"
     inkscape:window-x="-8"
     inkscape:window-y="-8"
     inkscape:window-maximized="1"
     inkscape:current-layer="svg3" />
  <path
     style="fill:#77b1b1;fill-opacity:1;stroke:none;stroke-width:1.32867"
     d="M 366.90235,228.73082 C 312.55297,224.54464 249.1885,208.88846 197.00092,186.75136 171.35717,175.8737 129.07967,153.97459 111.49519,142.46067 86.515511,126.10453 38.950331,88.713163 22.767641,72.711243 4.5292714,54.676593 -1.1204686,44.681533 4.3550714,40.137243 c 4.0626399,-3.37169 13.7975396,-0.29561 52.3535896,16.54297 41.756041,18.2361 59.419929,24.85111 96.330509,36.07516 49.76358,15.132487 90.03125,23.681067 138.29704,29.359597 26.77935,3.15063 33.79897,3.44522 83.70595,3.51294 58.37561,0.0792 81.58974,-1.33422 127.84716,-7.78421 69.48187,-9.68835 137.00942,-25.181747 289.00212,-66.308127 97.2556,-26.31555 102.90397,-27.46332 189.68673,-38.54525 63.63343,-8.125799 111.27323,-11.375919 166.72933,-11.374729 66.5154,0.001 117.265,4.53292 172.7449,15.424629 94.4391,18.54011 177.913,55.92542 244.9679,109.713237 38.0762,30.54273 51.0191,45.89933 44.6328,52.95614 -4.2417,4.68697 -11.3916,3.37675 -39.2424,-7.19114 -111.6399,-42.36129 -224.4962,-61.20609 -365.9522,-61.10682 -136.2154,0.0956 -254.76837,16.21622 -423.84453,57.63361 -168.26838,41.21954 -218.16537,51.01098 -297.55209,58.38968 -30.67647,2.85126 -88.64198,3.49241 -117.15953,1.29589 z"
     id="path834" />
</svg>
